<?xml version="1.0" encoding="UTF-8"?>
<svg version="1.1" xmlns="http://www.w3.org/2000/svg" width="960" height="960" viewBox="0 0 960 960">
<path fill="#000000" fill-rule="evenodd" d="M 579,215 C 586,228 579,238 572,249 C 564,263 556,278 548,293 C 538,311 528,322 506,326 C 506,327 506,327 506,331 C 506,346 506,362 506,378 C 506,379 506,379 506,386 C 506,391 506,396 506,401 C 506,406 506,412 506,417 C 505,425 505,432 505,440 C 505,442 505,445 505,447 C 505,459 505,471 504,483 C 507,483 509,483 512,484 C 526,485 540,489 553,494 C 562,497 566,494 572,489 C 588,478 604,467 620,456 C 636,445 653,434 669,423 C 676,418 682,413 689,409 C 710,395 731,381 752,366 C 756,364 760,361 764,358 C 769,355 773,352 778,349 C 810,330 855,336 887,353 C 907,367 918,386 918,411 C 918,413 918,415 918,417 C 918,427 914,430 906,435 C 902,437 898,438 894,440 C 892,441 890,442 888,443 C 885,444 883,445 880,446 C 875,448 870,450 864,452 C 862,453 859,454 857,455 C 846,459 835,464 824,468 C 808,475 792,481 777,487 C 754,496 732,505 710,514 C 678,528 646,541 613,554 C 611,555 609,556 607,556 C 603,558 603,558 599,558 C 599,574 599,590 599,606 C 602,606 606,607 609,607 C 612,608 616,609 619,610 C 620,610 620,610 625,611 C 627,612 630,613 632,613 C 633,614 633,614 640,615 C 667,623 695,631 723,639 C 758,649 792,659 827,669 C 830,670 832,671 835,672 C 842,674 850,676 857,678 C 859,678 861,679 864,680 C 866,680 868,681 870,682 C 872,682 874,683 876,683 C 880,684 884,686 889,687 C 891,687 893,688 896,689 C 898,689 900,690 902,690 C 913,694 918,699 921,710 C 923,730 920,743 904,756 C 893,763 882,766 869,769 C 867,769 866,770 864,770 C 858,771 852,771 845,771 C 843,771 841,771 839,771 C 821,770 807,765 791,758 C 787,757 783,755 778,753 C 777,753 777,753 772,750 C 763,747 755,744 746,740 C 743,739 739,738 736,736 C 734,736 732,735 731,734 C 720,730 709,726 698,721 C 684,716 670,710 656,705 C 582,676 582,676 567,670 C 556,666 548,668 537,671 C 496,682 450,683 410,667 C 394,667 380,674 366,680 C 350,687 333,693 317,700 C 310,703 303,705 296,708 C 292,709 289,711 285,712 C 269,718 252,725 236,731 C 228,734 220,738 212,741 C 208,742 204,744 200,745 C 198,746 197,747 195,747 C 180,753 165,759 150,765 C 118,778 78,773 50,751 C 37,738 36,723 40,705 C 46,693 54,692 66,688 C 68,688 68,688 74,686 C 88,682 102,678 115,674 C 133,669 150,664 168,659 C 171,658 173,658 176,657 C 182,655 188,653 194,652 C 211,647 229,641 247,636 C 248,636 248,636 253,635 C 282,626 312,618 341,609 C 345,608 349,607 353,606 C 356,606 358,606 361,606 C 361,598 362,590 362,582 C 362,580 362,578 362,575 C 362,569 362,564 361,558 C 356,555 356,555 349,555 C 343,553 338,551 333,548 C 332,548 332,548 328,546 C 324,545 321,544 317,542 C 310,539 303,536 296,533 C 283,528 270,523 257,518 C 236,509 216,501 195,492 C 178,485 161,478 144,471 C 132,467 120,462 109,457 C 108,457 108,457 102,454 C 97,453 93,451 89,449 C 83,447 77,444 71,442 C 69,441 67,440 65,439 C 63,439 60,438 58,437 C 57,436 55,435 53,435 C 43,429 41,424 41,414 C 42,389 50,369 71,354 C 107,335 151,330 187,352 C 193,356 198,360 204,364 C 210,368 216,372 223,376 C 231,382 240,388 248,394 C 252,397 256,399 260,402 C 265,405 270,409 275,412 C 276,413 278,414 279,415 C 286,420 294,425 301,430 C 314,439 327,448 340,456 C 371,477 371,477 386,489 C 396,496 401,497 411,493 C 425,488 440,483 455,483 C 455,481 455,479 455,477 C 455,469 455,460 455,452 C 454,447 454,441 454,436 C 454,417 454,398 454,379 C 454,375 454,372 454,369 C 455,362 455,355 455,349 C 455,346 455,343 455,340 C 455,339 455,339 455,332 C 454,326 454,326 449,324 C 447,324 445,323 443,323 C 427,316 419,308 411,292 C 403,275 394,259 383,242 C 379,234 375,226 379,217 C 411,174 545,175 579,215 Z M 406,227 C 404,233 408,237 411,242 C 412,243 412,243 415,249 C 416,251 418,253 419,255 C 420,257 421,258 422,260 C 428,270 428,270 431,271 C 433,270 436,269 438,268 C 466,258 498,257 525,270 C 532,270 532,270 535,266 C 536,264 537,262 538,260 C 539,258 540,257 541,255 C 542,253 543,251 544,249 C 546,246 547,244 549,241 C 552,235 552,235 553,226 C 531,216 506,216 483,216 C 481,216 481,216 474,216 C 419,215 419,215 406,227 Z M 443,291 C 443,292 442,294 442,295 C 447,299 450,299 456,300 C 457,298 458,297 459,295 C 469,287 484,289 495,292 C 500,294 500,294 504,300 C 513,298 513,298 517,296 C 517,295 518,293 518,292 C 495,280 467,279 443,291 Z M 71,389 C 67,397 66,403 66,412 C 71,415 76,418 82,420 C 83,420 83,420 87,422 C 95,425 102,428 109,431 C 117,434 126,438 134,441 C 136,442 138,443 141,444 C 154,449 167,454 180,460 C 210,472 241,484 271,497 C 289,504 307,511 325,519 C 329,520 333,522 337,524 C 342,526 347,528 352,530 C 358,532 358,532 365,532 C 370,525 370,525 374,517 C 374,516 374,516 377,513 C 375,506 364,502 358,498 C 354,495 351,493 347,491 C 346,490 344,489 342,487 C 334,482 326,477 318,471 C 317,470 317,470 313,467 C 311,466 310,465 308,464 C 303,461 297,457 292,453 C 283,447 274,442 266,436 C 259,431 252,426 245,422 C 243,420 241,418 238,417 C 233,414 228,410 224,407 C 213,400 203,393 193,386 C 191,385 190,384 188,383 C 185,381 182,379 180,377 C 150,355 92,353 71,389 Z M 769,385 C 761,390 753,395 746,401 C 726,413 707,426 688,440 C 676,448 665,456 653,463 C 645,468 638,474 630,479 C 619,487 608,494 597,501 C 584,510 584,510 583,514 C 587,521 591,527 596,533 C 602,532 606,530 612,528 C 614,527 616,526 618,526 C 620,525 622,524 625,523 C 629,521 634,519 638,517 C 640,516 642,516 645,515 C 653,511 661,508 669,505 C 694,495 719,484 743,474 C 770,464 796,453 823,442 C 828,440 834,438 839,435 C 841,435 843,434 845,433 C 848,432 852,430 856,429 C 863,426 870,423 877,420 C 892,415 892,415 894,407 C 892,390 885,380 871,372 C 834,356 800,362 769,385 Z M 390,533 C 384,545 384,560 386,573 C 392,571 398,569 403,567 C 456,544 519,548 569,573 C 571,573 572,573 574,573 C 574,568 574,564 574,559 C 574,556 574,554 574,551 C 573,535 564,528 551,520 C 505,497 429,496 390,533 Z M 388,606 C 384,615 386,619 391,627 C 403,639 403,639 411,637 C 412,633 414,630 415,626 C 432,601 464,599 491,600 C 512,602 532,608 545,625 C 548,633 548,633 549,638 C 561,636 569,628 574,618 C 572,600 560,593 544,585 C 502,570 416,560 388,606 Z M 435,635 C 435,642 435,642 442,646 C 466,657 494,658 518,646 C 520,644 523,642 525,640 C 521,627 509,626 497,623 C 477,620 450,620 435,635 Z M 584,644 C 584,646 583,647 583,649 C 587,651 587,651 593,654 C 595,655 597,656 599,656 C 602,657 604,658 606,659 C 607,659 607,659 612,661 C 617,664 623,666 629,668 C 633,670 637,671 642,673 C 644,674 646,675 648,675 C 665,682 682,689 699,695 C 706,698 713,701 720,704 C 745,713 770,723 795,733 C 798,735 801,736 804,737 C 807,738 809,739 812,740 C 838,750 870,750 893,733 C 898,728 897,723 897,716 C 891,712 885,711 878,709 C 875,708 872,707 869,706 C 868,706 866,706 864,705 C 856,703 847,700 838,698 C 836,697 834,697 832,696 C 809,690 785,683 762,676 C 757,675 753,673 748,672 C 734,668 720,664 707,660 C 690,656 674,651 658,646 C 651,644 645,643 638,641 C 634,640 630,638 627,637 C 625,637 623,636 621,636 C 594,628 594,628 584,644 Z M 321,641 C 319,641 317,642 315,642 C 309,644 302,646 296,648 C 292,649 287,650 283,652 C 271,655 259,658 248,662 C 236,665 224,668 213,672 C 199,676 186,679 172,683 C 153,689 134,694 115,700 C 113,700 113,700 106,702 C 100,704 95,705 90,707 C 89,707 89,707 83,709 C 81,709 79,710 77,710 C 63,715 63,715 62,720 C 62,730 70,736 79,741 C 105,750 129,748 155,737 C 158,736 162,735 165,733 C 167,732 168,732 170,731 C 184,725 199,720 213,714 C 214,714 214,714 219,712 C 232,707 245,702 258,696 C 264,694 270,692 276,689 C 280,688 283,686 287,685 C 289,684 291,683 293,683 C 303,679 313,675 323,671 C 325,670 328,669 330,668 C 334,667 338,665 342,664 C 348,661 353,659 359,657 C 361,656 363,656 364,655 C 369,653 373,651 377,649 C 375,641 371,636 366,630 C 351,630 335,637 321,641 Z"/>
</svg>