<svg height="960" viewBox="0 0 960 960" width="960" xmlns="http://www.w3.org/2000/svg"><path d="M 921 308 C 812 308.333333 703 308.666667 594 309 C 594.333333 423.333333 594.666667 537.666667 595 652 C 608.666667 651.666667 622.333333 651.333333 636 651 C 636.666667 597.666667 637.333333 544.333333 638 491 C 718.333333 490.666667 798.666667 490.333333 879 490 C 878.666667 477.666667 878.333333 465.333333 878 453 C 798 453 718 453 638 453 C 637.333333 417 636.666667 381 636 345 C 731 344.333333 826 343.666667 921 343 Z M 38 309 C 38.333333 423.333333 38.666667 537.666667 39 652 C 52.666667 651.666667 66.333333 651.333333 80 651 C 80.666667 561.333333 81.333333 471.666667 82 382 C 144.666667 472 207.333333 562 270 652 C 282.333333 650.333333 294.666667 648.666667 307 647 C 368.333333 558.666667 429.666667 470.333333 491 382 C 491.333333 471.666667 491.666667 561.333333 492 651 C 506 651 520 651 534 651 C 533.666667 536.666667 533.333333 422.333333 533 308 C 515.333333 311 497.666667 314 480 317 C 415.666667 412 351.333333 507 287 602 C 220.666667 504.333333 154.333333 406.666667 88 309 Z"/></svg>